# xmcd
#
# Track frame offsets: 
#        150
#        1666
#        17568
#        33096
#        48783
#        62753
#        77439
#        94429
#        110445
#        127519
#        146464
#        161140
#        162656
#        176852
#        190564
#        207115
#        223274
#        237370
#        267888
#        284390
#        299804
#        313771
#
# Disc length: 4405 seconds
#
# Revision: 0
# Processed by: cddbd v1.5.2PL0 Copyright (c) Steve Scherf et al.
# Submitted via: ExactAudioCopy v0.99pb5
#
DISCID=36113316
DTITLE=Various Artist - Ballermann Hits 2009 XXL
DYEAR=2009
DGENRE=
TTITLE0=Ballermann Hits - Intro
TTITLE1=Mickie Krause - Düp Düp
TTITLE2=Peter Wackel feat... Chriss Tuxi - Kenn Nicht Deinen Namen - S
TTITLE2=cheißegal (Besoffen)
TTITLE3=Tim Toupet - So Ein Schöner Tag (Fliegerlied) (Latino-Summer-M
TTITLE3=ix)
TTITLE4=Markus Becker - Die Bunte Kuh
TTITLE5=Chris Andrews-Tobee - Pretty Belinda-Schlauchboot
TTITLE6=Hermes House Band - Come On Eileen
TTITLE7=DJ Düse - Hubschraubereinsatz
TTITLE8=Olaf Henning - So Eine Nacht (DJ Version)
TTITLE9=Anna-Maria Zimmermann - 1000 Träume Weit (Tornero)
TTITLE10=Michael Wendler - I Don't Know
TTITLE11=Ballermann Hits - Intro
TTITLE12=David Guetta feat... Kelly Rowland - Whenn Love Takes Over
TTITLE13=Alexander Rybak - Fairytale
TTITLE14=Pet Shop Boys - Did You See Me Coming
TTITLE15=R.i.o.-Neal Antone Dyer - After The Love
TTITLE16=Loona - Parapapapas
TTITLE17=Cascada - Evacuate The Dancefloor
TTITLE18=Sonic Palms - On The Beach
TTITLE19=Flo Rida feat... Kesha - Right Round
TTITLE20=The Baseballs - Umbrella
TTITLE21=Queensberry - Too Young
EXTD=
EXTT0=
EXTT1=
EXTT2=
EXTT3=
EXTT4=
EXTT5=
EXTT6=
EXTT7=
EXTT8=
EXTT9=
EXTT10=
EXTT11=
EXTT12=
EXTT13=
EXTT14=
EXTT15=
EXTT16=
EXTT17=
EXTT18=
EXTT19=
EXTT20=
EXTT21=
PLAYORDER=
